<?xml version="1.0" standalone="no"?>
<svg id="Vector1" width="1390" height="942" viewBox="0 0 1390 942" fill="none" xmlns="http://www.w3.org/2000/svg" style="max-width: 100%; max-height: 100%;">
<path d="M391.5 2.49998C241.5 28 148.5 -21 134.5 170C120.5 361 25 381.5 162 437.5C299 493.5 383.5 577.5 468 498C552.5 418.5 547 428 507.5 310C468 192 612.5 177.5 633.5 193.5C654.5 209.5 811 234 748.5 374C686 514 707 578 793 586C879 594 943 622.5 920.5 707C898 791.5 844.5 917.5 723 831.5C601.5 745.5 558 692.5 415 740.5C272 788.5 244 812.5 152 908C60 1003.5 -25 866.5 8.50001 799.5C42 732.5 92 676.5 162 656C232 635.5 297.5 582.5 240 528.5C182.5 474.5 109 258 225.5 170C342 82 621 171 665.5 133C710 95 881 12 995.5 13.5C1110 15 1269.5 21.5 1317.5 107.5C1365.5 193.5 1451.5 348.5 1317.5 393C1183.5 437.5 1127.5 309 1159.5 213C1191.5 117 1142 59.5 1116.5 64.5C1091 69.5 855 91.5 880.5 310C906 528.5 906.5 625.5 1179 683C1451.5 740.5 1392.5 919.5 1317.5 890.5C1242.5 861.5 1042 748.5 995.5 842.5C949 936.5 697.5 830 723 627.5C748.5 425 1132 517.5 1210.5 374C1289 230.5 1119.5 26.8217 861.5 107.5C603.5 188.178 611.5 533.5 605 586C598.5 638.5 587 813.5 507.5 852C428 890.5 276 821.5 270 724.5C264 627.5 455.5 412 391.5 283C327.5 154 -37.5 326.5 37.5 170C112.5 13.5 473 120 477.5 74C482 28 457 -8.50002 391.5 2.49998Z" stroke="black" stroke-dasharray="0,0,0,12066.43359375"><animate attributeType="XML" attributeName="stroke-dasharray" repeatCount="1" dur="16.666666666666668s" values="0,0,0,12066.43359375; 
          0,6033.216796875,6033.216796875,0; 
          12066.43359375,0,0,0" keyTimes="0; 0.5; 1" fill="freeze"></animate></path>
<setting>{"type":"direct","speed":3,"random":1,"shift":1,"size":1,"rupture":50}</setting></svg>